<svg id="Layer_1" data-name="Layer 1" xmlns="http://www.w3.org/2000/svg" viewBox="0 0 490.66 153.33"><defs><style>.cls-1{fill:#202e3a;fill-rule:evenodd;}.cls-2{fill:none;}.cls-3{fill:#be1f54;}</style></defs><title>yemekcom-logo</title><path class="cls-1" d="M8267.54,8267.53v-17.12c0-2.73-1.63-4.27-3.61-4.27s-3.8,1.54-3.8,4.27v17.12h-13.66v-17.12c0-2.73-1.63-4.27-3.62-4.27s-3.79,1.54-3.79,4.27v17.12H8225.4v-32.35h13.66v4.32a12.6,12.6,0,0,1,9.93-5.09c4.46,0,7.89,1.89,9.7,5.33,2.77-3.08,6.08-5.33,11.14-5.33,7,0,11.37,4.5,11.37,11.79v21.33Zm-62.58.77c-10.78,0-18.42-7.7-18.42-16.83v-.12c0-9.12,7.7-16.94,18.54-16.94s18.42,7.7,18.42,16.83v.11C8223.5,8260.48,8215.79,8268.3,8205,8268.3Zm5.41-16.95a5.55,5.55,0,0,0-5.41-5.74,5.39,5.39,0,0,0-5.3,5.63v.11a5.57,5.57,0,0,0,5.42,5.75,5.39,5.39,0,0,0,5.29-5.63Zm-39.14,5.45c2.4,0,3.78-1.19,5.1-3.26l9.91,5.57c-2.94,5.39-7.93,8.83-15.73,8.83a17.27,17.27,0,0,1-11.39-4.14,12.82,12.82,0,0,0,.1-1.53,12.19,12.19,0,0,0-5.92-10.56c0-.2,0-.4,0-.6V8251c0-9.06,7.2-16.94,17.89-16.94,7.2,0,12.31,3.67,14.83,8.94l-9.79,5.45c-1.14-2.07-2.58-3.25-4.8-3.25-2.88,0-5,2.48-5,5.68v.12C8166.37,8254.37,8168.53,8256.8,8171.23,8256.8Zm-22.41,10.71a6.77,6.77,0,1,1,6.88-6.77A6.82,6.82,0,0,1,8148.82,8267.51Z" transform="translate(-7946.55 -8114.97)"/><path class="cls-2" d="M8114.6,8159.26c-5.22,0-8.93,4.4-9.89,11.27H8125C8124.35,8163.38,8120.09,8159.26,8114.6,8159.26Z" transform="translate(-7946.55 -8114.97)"/><path class="cls-2" d="M8317.19,8158.71c-5.23,0-8.93,4.4-9.9,11.27h20.34C8326.94,8162.83,8322.68,8158.71,8317.19,8158.71Z" transform="translate(-7946.55 -8114.97)"/><path class="cls-3" d="M8413.29,8169.43l23.5-30.51h-33.94L8386.77,8162v-32.89a16,16,0,0,1-13.26-13.18h-17.93v55c-2.5-19.21-14.89-33.8-38.53-33.8-17.95,0-31.79,10.81-36.69,26.53-.31-16.41-10.12-26.53-25.94-26.53-11.54,0-19.09,5.22-25.41,12.36-4.13-8-12-12.36-22.13-12.36s-17.86,5.63-22.67,11.81v-10H8153v33c-2.38-19.41-14.77-34.21-38.56-34.21-12.51,0-23,5.27-29.9,13.78v51.29c7.24,8.56,18.6,13.54,32.51,13.54,16.2,0,26.78-6.74,34.19-16.36l-16.75-13.33c-4.95,5.09-9.61,7.7-15.24,7.7-6.73,0-12-3.44-14.15-10H8153V8214h31.19v-39.71c0-6.33,4.12-9.9,8.66-9.9s8.24,3.57,8.24,9.9V8214h31.19v-39.71c0-6.33,4.12-9.9,8.66-9.9s8.24,3.57,8.24,9.9V8214h31.19v-24c5.06,15.9,19.62,25.82,39.27,25.82,16.21,0,26.79-6.73,34.21-16.35l-16.76-13.33c-5,5.09-9.62,7.7-15.25,7.7-6.74,0-12-3.44-14.15-10h47.87V8214h31.19V8201.3l6.19-8,10.85,20.61h33.39Zm-308.58,1.1c1-6.87,4.67-11.27,9.89-11.27,5.49,0,9.75,4.12,10.43,11.27Zm202.58-.55c1-6.87,4.67-11.27,9.9-11.27,5.49,0,9.75,4.12,10.44,11.27Z" transform="translate(-7946.55 -8114.97)"/><path class="cls-3" d="M8078.8,8217.28v-90.81c-17.19.83-21.87-11.5-21.87-11.5-11.24,32.13-35.79,15-35.79,15l-.05,47.57c0,6.3-3.72,9.87-8.26,9.87s-8.67-3.57-8.67-9.87l0-30.15h0v-31.84h-57.58v31.84h0c-.1,12.71,1.15,53.47,20.6,64.15,24.34,13.37,56.4-5.75,56.4-5.75v20.69c-.25,16.25-51.79,2.3-51.79,2.3v34.49c12.85,3.89,38,4.6,38,4.6h8.06C8084.46,8267.76,8078.8,8217.28,8078.8,8217.28Z" transform="translate(-7946.55 -8114.97)"/></svg>